<svg width="28" height="26" viewBox="0 0 28 26" fill="none" xmlns="http://www.w3.org/2000/svg">
<path d="M0.669312 13.0026C0.670863 19.1518 5.44051 24.3876 11.9186 25.3513V16.6151H8.53598V13.0026H11.9226V10.2526C11.7712 8.94948 12.246 7.6508 13.2182 6.70872C14.1903 5.76664 15.5591 5.27882 16.9533 5.37756C17.954 5.39271 18.9522 5.47626 19.94 5.62756V8.70131H18.2546C17.6744 8.63006 17.0911 8.80971 16.669 9.18964C16.2469 9.56957 16.0317 10.1087 16.084 10.6551V13.0026H19.7786L19.188 16.6163H16.084V25.3513C23.0899 24.3133 28.0028 18.3148 27.2633 11.7014C26.5239 5.08802 20.391 0.174967 13.3077 0.521528C6.22446 0.86809 0.670437 6.35294 0.669312 13.0026Z" fill="#263E56"/>
</svg>
