<svg width="25" height="25" viewBox="0 0 25 25" fill="none" xmlns="http://www.w3.org/2000/svg">
<path d="M12.4994 3.26919e-07C6.36936 -0.000775293 1.14381 4.37841 0.162346 10.3388C-0.819113 16.2992 2.73333 22.0809 8.54931 23.9888C9.17571 24.0999 9.39996 23.721 9.39996 23.3952C9.39996 23.1027 9.38993 22.3278 9.38618 21.2973C5.90967 22.0378 5.17553 19.6462 5.17553 19.6462C4.94667 18.902 4.45465 18.2632 3.78869 17.8457C2.66117 17.0818 3.87513 17.0991 3.87513 17.0991C4.67777 17.2075 5.38419 17.6759 5.78815 18.3677C6.13008 18.9801 6.70615 19.4326 7.38835 19.6247C8.07055 19.8168 8.80239 19.7326 9.42125 19.3907C9.47941 18.7663 9.76144 18.1827 10.2168 17.7445C7.44309 17.4347 4.52658 16.3784 4.52658 11.6606C4.51119 10.4403 4.9712 9.26071 5.81195 8.36442C5.43154 7.30229 5.47634 6.13727 5.93723 5.10652C5.93723 5.10652 6.98582 4.77456 9.3724 6.36649C11.4193 5.81364 13.5795 5.81364 15.6263 6.36649C18.0142 4.77332 19.0615 5.10652 19.0615 5.10652C19.5245 6.13678 19.5694 7.30261 19.1868 8.36442C20.0306 9.26063 20.4902 10.4434 20.4697 11.6655C20.4697 16.3957 17.5506 17.4347 14.7669 17.7395C15.3674 18.3443 15.6754 19.1739 15.6126 20.0176C15.6126 21.6638 15.5975 22.9917 15.5975 23.3952C15.5975 23.7247 15.8205 24.1073 16.4582 23.9863C22.2718 22.0752 25.8204 16.2932 24.8369 10.3344C23.8534 4.37553 18.6281 -0.00138112 12.4994 3.26919e-07Z" fill="#263E56"/>
</svg>
