<svg width="24" height="24" viewBox="0 0 24 24" fill="none" xmlns="http://www.w3.org/2000/svg">
<path d="M12.0025 23.3012C8.92746 23.3012 8.56496 23.285 7.36496 23.2325C6.42917 23.2017 5.5055 23.0115 4.63371 22.67C3.12535 22.083 1.93263 20.8898 1.34621 19.3812C1.01784 18.5063 0.840729 17.5818 0.822457 16.6475C0.752457 15.45 0.752457 15.0575 0.752457 12.0062C0.752457 8.92248 0.768707 8.56248 0.822457 7.36873C0.841129 6.43563 1.01823 5.51249 1.34621 4.63873C1.932 3.12814 3.12665 1.93394 4.63746 1.34873C5.51076 1.01898 6.43414 0.841406 7.36746 0.823726C8.56121 0.756226 8.95371 0.756226 12.0025 0.756226C15.1025 0.756226 15.4587 0.772476 16.64 0.823726C17.5757 0.841559 18.5015 1.01911 19.3775 1.34873C20.8878 1.9346 22.0823 3.12857 22.6687 4.63873C23.0026 5.52522 23.1807 6.46279 23.195 7.40998C23.265 8.60748 23.265 8.99873 23.265 12.0487C23.265 15.0987 23.2475 15.4987 23.195 16.6825C23.1763 17.6177 22.9988 18.543 22.67 19.4187C22.082 20.9284 20.8875 22.1219 19.3775 22.7087C18.5028 23.0365 17.5788 23.2136 16.645 23.2325C15.4512 23.3012 15.06 23.3012 12.0025 23.3012ZM11.96 2.73498C8.90246 2.73498 8.58496 2.74998 7.39121 2.80373C6.67869 2.81317 5.97306 2.94465 5.30496 3.19248C4.3184 3.56999 3.53774 4.34747 3.15621 5.33248C2.90647 6.00785 2.77497 6.7212 2.76746 7.44123C2.70121 8.65248 2.70121 8.96998 2.70121 12.0062C2.70121 15.0062 2.71246 15.37 2.76746 16.5737C2.77865 17.2865 2.91008 17.9922 3.15621 18.6612C3.5383 19.6456 4.31882 20.4225 5.30496 20.8C5.9726 21.0494 6.67852 21.181 7.39121 21.1887C8.60121 21.2587 8.91996 21.2587 11.96 21.2587C15.0262 21.2587 15.3437 21.2437 16.5275 21.1887C17.2405 21.18 17.9466 21.0485 18.615 20.8C19.5955 20.4192 20.3711 19.6441 20.7525 18.6637C21.0017 17.9878 21.1332 17.2741 21.1412 16.5537H21.155C21.2087 15.3587 21.2087 15.04 21.2087 11.9862C21.2087 8.93248 21.195 8.61123 21.1412 7.41748C21.13 6.70554 20.9986 6.00061 20.7525 5.33248C20.372 4.35069 19.5963 3.57409 18.615 3.19248C17.9468 2.9434 17.2405 2.81188 16.5275 2.80373C15.3187 2.73498 15.0025 2.73498 11.96 2.73498ZM12.0025 17.78C9.66494 17.7815 7.55673 16.3746 6.66103 14.2155C5.76534 12.0564 6.25859 9.57039 7.91075 7.9168C9.5629 6.26322 12.0485 5.76781 14.2084 6.66164C16.3683 7.55547 17.777 9.66246 17.7775 12C17.774 15.1888 15.1913 17.7738 12.0025 17.78ZM12.0025 8.24748C9.93139 8.24748 8.25246 9.92641 8.25246 11.9975C8.25246 14.0685 9.93139 15.7475 12.0025 15.7475C14.0735 15.7475 15.7525 14.0685 15.7525 11.9975C15.7476 9.9284 14.0715 8.25229 12.0025 8.24748ZM18.0025 7.35623C17.2592 7.35347 16.6586 6.74946 16.66 6.00624C16.6613 5.26301 17.2642 4.66123 18.0075 4.66123C18.7507 4.66123 19.3536 5.263 19.355 6.00623C19.3553 6.3648 19.2128 6.70875 18.959 6.96207C18.7052 7.21539 18.361 7.35722 18.0025 7.35623Z" fill="#263E56"/>
</svg>
