<svg width="49" height="57" viewBox="0 0 49 57" fill="none" xmlns="http://www.w3.org/2000/svg">
<path d="M4.31995 39.9333V4L24.4799 21.9667M4.31995 39.9333L16.4159 53M4.31995 39.9333L14.3999 30.95M24.4799 21.9667L44.6399 4M24.4799 21.9667L38.5919 36.6667L44.6399 43.4131M24.4799 21.9667L14.3999 30.95M14.3999 30.95L20.4479 36.6667" stroke="#263E56" stroke-width="8" stroke-linecap="round" stroke-linejoin="round"/>
<path d="M3 39.9333V4L23.16 21.9667M3 39.9333L15.096 53M3 39.9333L13.08 30.95M23.16 21.9667L43.32 4M23.16 21.9667L37.272 36.6667L43.32 43.058M23.16 21.9667L13.08 30.95M13.08 30.95L19.128 36.6667" stroke="#9D78F7" stroke-width="5" stroke-linecap="round" stroke-linejoin="round"/>
</svg>
