<svg width="28" height="22" viewBox="0 0 28 22" fill="none" xmlns="http://www.w3.org/2000/svg">
<path d="M23.9938 3.35999C25.1143 2.6901 25.9527 1.63528 26.3525 0.392486C25.2996 1.01724 24.1475 1.45733 22.9463 1.69374C21.2807 -0.0681049 18.6419 -0.496857 16.5043 0.647056C14.3666 1.79097 13.2594 4.22435 13.8013 6.58749C9.48826 6.37095 5.46996 4.33363 2.74625 0.982486C1.3248 3.43426 2.0512 6.56846 4.40625 8.14499C3.55464 8.11761 2.72191 7.88703 1.9775 7.47249C1.9775 7.49499 1.9775 7.51749 1.9775 7.53999C1.978 10.0939 3.77797 12.2938 6.28125 12.8C5.49133 13.0149 4.66276 13.0465 3.85875 12.8925C4.56275 15.0766 6.57569 16.5728 8.87 16.6175C6.96979 18.1089 4.6231 18.9177 2.2075 18.9137C1.77934 18.9144 1.35152 18.8897 0.926254 18.84C3.37924 20.4163 6.23422 21.2529 9.15 21.25C13.2066 21.2779 17.105 19.6786 19.9734 16.81C22.8418 13.9414 24.4407 10.0428 24.4125 5.98624C24.4125 5.75374 24.4071 5.52249 24.3963 5.29249C25.4468 4.53324 26.3535 3.59267 27.0738 2.51499C26.095 2.94882 25.0568 3.23364 23.9938 3.35999Z" fill="#263E56"/>
</svg>
